<svg class="svg-icon" style="width: 1em; height: 1em;vertical-align: middle;fill: currentColor;overflow: hidden;" viewBox="0 0 1024 1024" version="1.1" xmlns="http://www.w3.org/2000/svg"><path d="M409.6 1024c-56.4736 0-102.4-45.9264-102.4-102.4s45.9264-102.4 102.4-102.4 102.4 45.9264 102.4 102.4-45.9264 102.4-102.4 102.4zM409.6 870.4c-28.2112 0-51.2 22.9888-51.2 51.2s22.9888 51.2 51.2 51.2 51.2-22.9888 51.2-51.2-22.9888-51.2-51.2-51.2z"  /><path d="M768 1024c-56.4736 0-102.4-45.9264-102.4-102.4s45.9264-102.4 102.4-102.4 102.4 45.9264 102.4 102.4-45.9264 102.4-102.4 102.4zM768 870.4c-28.2112 0-51.2 22.9888-51.2 51.2s22.9888 51.2 51.2 51.2 51.2-22.9888 51.2-51.2-22.9888-51.2-51.2-51.2z"  /><path d="M897.9968 228.7104c-12.8512-15.2064-32.256-23.9104-53.1968-23.9104l-626.8416 0-5.0688-30.5152c-6.7072-40.2944-43.9808-71.8848-84.8896-71.8848l-51.2 0c-14.1312 0-25.6 11.4688-25.6 25.6s11.4688 25.6 25.6 25.6l51.2 0c15.7184 0 31.7952 13.6192 34.3552 29.1328l85.5552 513.3824c6.7072 40.2944 43.9808 71.8848 84.8896 71.8848l512 0c14.1312 0 25.6-11.4688 25.6-25.6s-11.4688-25.6-25.6-25.6l-512 0c-15.7184 0-31.7952-13.6192-34.3552-29.1328l-12.6464-75.776 510.208-44.3904c39.68-3.4304 75.9296-36.9152 82.4832-76.2368l34.3552-206.1824c3.4304-20.6848-1.9456-41.2672-14.7968-56.4224zM862.3104 276.6848l-34.3552 206.1824c-2.7136 16.1792-20.0192 32.2048-36.4032 33.6384l-514.2016 44.6976-50.8928-305.2544 618.2912 0c5.9904 0 11.008 2.048 14.1312 5.7856s4.352 9.0112 3.3792 14.8992z"  /></svg>