<?xml version="1.0" encoding="iso-8859-1"?>
<!-- Uploaded to: SVG Repo, www.svgrepo.com, Generator: SVG Repo Mixer Tools -->
<svg fill="#000000" height="800px" width="800px" version="1.1" id="Layer_1" xmlns="http://www.w3.org/2000/svg" xmlns:xlink="http://www.w3.org/1999/xlink" 
	 viewBox="0 0 512 512" xml:space="preserve">
<g>
	<g>
		<g>
			<path d="M298.667,298.667c-11.782,0-21.333,9.551-21.333,21.333v21.333H64V106.667h213.333v42.667
				c0,11.782,9.551,21.333,21.333,21.333c11.782,0,21.333-9.551,21.333-21.333V42.667C320,19.109,300.891,0,277.333,0H64
				C40.442,0,21.333,19.109,21.333,42.667v426.667C21.333,492.891,40.442,512,64,512h213.333C300.891,512,320,492.891,320,469.333
				V320C320,308.218,310.449,298.667,298.667,298.667z M277.333,42.667V64H64V42.667H277.333z M64,469.333V384h213.333v85.333H64z"
				/>
			<path d="M170.667,405.333c-11.776,0-21.333,9.557-21.333,21.333S158.891,448,170.667,448S192,438.443,192,426.667
				S182.443,405.333,170.667,405.333z"/>
			<path d="M487.074,246.512c0.203-0.303,0.378-0.617,0.564-0.928c0.171-0.287,0.351-0.567,0.51-0.862
				c0.169-0.317,0.313-0.642,0.465-0.965c0.146-0.308,0.299-0.611,0.43-0.927c0.13-0.313,0.234-0.633,0.348-0.951
				c0.122-0.339,0.252-0.673,0.356-1.019c0.096-0.318,0.167-0.641,0.248-0.963c0.089-0.353,0.188-0.702,0.259-1.061
				c0.074-0.372,0.117-0.747,0.171-1.122c0.045-0.314,0.105-0.623,0.136-0.941c0.069-0.699,0.106-1.401,0.106-2.104
				c0,0,0-0.001,0-0.001l0,0c0-0.703-0.037-1.405-0.106-2.105c-0.031-0.318-0.091-0.627-0.136-0.94
				c-0.054-0.375-0.098-0.75-0.171-1.122c-0.071-0.359-0.17-0.708-0.259-1.061c-0.081-0.322-0.151-0.645-0.248-0.964
				c-0.105-0.346-0.234-0.68-0.356-1.018c-0.114-0.318-0.219-0.639-0.349-0.953c-0.131-0.316-0.284-0.618-0.43-0.926
				c-0.152-0.323-0.296-0.649-0.465-0.966c-0.158-0.295-0.338-0.575-0.509-0.861c-0.186-0.311-0.361-0.626-0.564-0.929
				c-0.211-0.316-0.447-0.613-0.674-0.917c-0.19-0.253-0.365-0.513-0.568-0.759c-0.446-0.544-0.916-1.067-1.413-1.563l-64-64
				c-8.331-8.331-21.839-8.331-30.17,0c-8.331,8.331-8.331,21.839,0,30.17l27.582,27.582H192c-11.782,0-21.333,9.551-21.333,21.333
				c0,11.782,9.551,21.333,21.333,21.333h225.83l-27.582,27.582c-8.331,8.331-8.331,21.839,0,30.17
				c8.331,8.331,21.839,8.331,30.17,0l64-64c0.497-0.497,0.967-1.02,1.413-1.564c0.202-0.246,0.377-0.505,0.566-0.757
				C486.626,247.126,486.862,246.828,487.074,246.512z"/>
		</g>
	</g>
</g>
</svg>